--40001LOG 16:46:31:189344800 Waiting for file /home/seluser/videos/vid_chrome_or_firefox_40001* to be created...
Won't start video recording due to VIDEO env var false
ffmpeg version 2.8.17-0ubuntu0.1 Copyright (c) 2000-2020 the FFmpeg developers
  built with gcc 5.4.0 (Ubuntu 5.4.0-6ubuntu1~16.04.12) 20160609
  configuration: --prefix=/usr --extra-version=0ubuntu0.1 --build-suffix=-ffmpeg --toolchain=hardened --libdir=/usr/lib/x86_64-linux-gnu --incdir=/usr/include/x86_64-linux-gnu --cc=cc --cxx=g++ --enable-gpl --enable-shared --disable-stripping --disable-decoder=libopenjpeg --disable-decoder=libschroedinger --enable-avresample --enable-avisynth --enable-gnutls --enable-ladspa --enable-libass --enable-libbluray --enable-libbs2b --enable-libcaca --enable-libcdio --enable-libflite --enable-libfontconfig --enable-libfreetype --enable-libfribidi --enable-libgme --enable-libgsm --enable-libmodplug --enable-libmp3lame --enable-libopenjpeg --enable-libopus --enable-libpulse --enable-librtmp --enable-libschroedinger --enable-libshine --enable-libsnappy --enable-libsoxr --enable-libspeex --enable-libssh --enable-libtheora --enable-libtwolame --enable-libvorbis --enable-libvpx --enable-libwavpack --enable-libwebp --enable-libx265 --enable-libxvid --enable-libzvbi --enable-openal --enable-opengl --enable-x11grab --enable-libdc1394 --enable-libiec61883 --enable-libzmq --enable-frei0r --enable-libx264 --enable-libopencv
  libavutil      54. 31.100 / 54. 31.100
  libavcodec     56. 60.100 / 56. 60.100
  libavformat    56. 40.101 / 56. 40.101
  libavdevice    56.  4.100 / 56.  4.100
  libavfilter     5. 40.101 /  5. 40.101
  libavresample   2.  1.  0 /  2.  1.  0
  libswscale      3.  1.101 /  3.  1.101
  libswresample   1.  2.101 /  1.  2.101
  libpostproc    53.  3.100 / 53.  3.100
Input #0, x11grab, from ':91.0':
  Duration: N/A, start: 1603896391.901718, bitrate: N/A
    Stream #0:0: Video: rawvideo (BGR[0] / 0x524742), bgr0, 1366x768, 10 fps, 10 tbr, 1000k tbn, 10 tbc
[libx264 @ 0x11a2320] using cpu capabilities: MMX2 SSE2Fast SSSE3 SSE4.2 AVX FMA3 AVX2 LZCNT BMI2
[libx264 @ 0x11a2320] profile Constrained Baseline, level 3.2
[libx264 @ 0x11a2320] 264 - core 148 r2643 5c65704 - H.264/MPEG-4 AVC codec - Copyleft 2003-2015 - http://www.videolan.org/x264.html - options: cabac=0 ref=1 deblock=0:0:0 analyse=0:0 me=dia subme=0 psy=1 psy_rd=1.00:0.00 mixed_ref=0 me_range=16 chroma_me=1 trellis=0 8x8dct=0 cqm=0 deadzone=21,11 fast_pskip=1 chroma_qp_offset=0 threads=3 lookahead_threads=1 sliced_threads=0 nr=0 decimate=1 interlaced=0 bluray_compat=0 constrained_intra=0 bframes=0 weightp=0 keyint=250 keyint_min=10 scenecut=0 intra_refresh=0 rc=crf mbtree=0 crf=23.0 qcomp=0.60 qpmin=0 qpmax=69 qpstep=4 ip_ratio=1.40 aq=0
Output #0, matroska, to '/home/seluser/videos/vid_chrome_or_firefox_40001.mkv':
  Metadata:
    encoder         : Lavf56.40.101
    Stream #0:0: Video: h264 (libx264) (H264 / 0x34363248), yuv420p, 1366x768, q=-1--1, 10 fps, 1k tbn, 10 tbc
    Metadata:
      encoder         : Lavc56.60.100 libx264
Stream mapping:
  Stream #0:0 -> #0:0 (rawvideo (native) -> h264 (libx264))
Press [q] to stop, [?] for help
[swscaler @ 0x11adca0] Warning: data is not aligned! This can lead to a speedloss
frame=    7 fps=0.0 q=10.0 size=      24kB time=00:00:00.30 bitrate= 660.7kbits/s    
frame=   13 fps= 11 q=12.0 size=      31kB time=00:00:00.90 bitrate= 283.1kbits/s    
frame=   20 fps= 11 q=9.0 size=      56kB time=00:00:01.60 bitrate= 286.0kbits/s    
frame=   26 fps= 11 q=9.0 size=      59kB time=00:00:02.20 bitrate= 218.9kbits/s    
frame=   32 fps= 11 q=9.0 size=      59kB time=00:00:02.80 bitrate= 174.0kbits/s    
frame=   37 fps= 11 q=9.0 size=      60kB time=00:00:03.30 bitrate= 149.3kbits/s    
frame=   43 fps= 11 q=10.0 size=      79kB time=00:00:03.90 bitrate= 165.0kbits/s    
frame=   47 fps= 10 q=11.0 size=     103kB time=00:00:04.30 bitrate= 196.4kbits/s    
frame=   53 fps= 10 q=10.0 size=     111kB time=00:00:04.90 bitrate= 185.1kbits/s    
frame=   61 fps= 10 q=9.0 size=     116kB time=00:00:05.70 bitrate= 166.6kbits/s    
frame=   66 fps= 10 q=9.0 size=     118kB time=00:00:06.20 bitrate= 156.1kbits/s    
frame=   71 fps= 10 q=12.0 size=     120kB time=00:00:06.70 bitrate= 147.3kbits/s    
frame=   77 fps= 10 q=11.0 size=     148kB time=00:00:07.30 bitrate= 166.4kbits/s    
frame=   82 fps= 10 q=9.0 size=     160kB time=00:00:07.80 bitrate= 167.9kbits/s    
frame=   87 fps= 10 q=9.0 size=     162kB time=00:00:08.30 bitrate= 159.8kbits/s    
frame=   95 fps= 10 q=14.0 size=     188kB time=00:00:09.10 bitrate= 169.5kbits/s    
frame=  100 fps= 10 q=10.0 size=     202kB time=00:00:09.60 bitrate= 172.7kbits/s    
frame=  106 fps= 10 q=9.0 size=     206kB time=00:00:10.20 bitrate= 165.5kbits/s    
frame=  112 fps= 10 q=9.0 size=     206kB time=00:00:10.80 bitrate= 156.6kbits/s    
frame=  118 fps= 10 q=9.0 size=     207kB time=00:00:11.40 bitrate= 148.5kbits/s    
frame=  123 fps= 10 q=9.0 size=     207kB time=00:00:11.90 bitrate= 142.4kbits/s    
frame=  129 fps= 10 q=9.0 size=     209kB time=00:00:12.50 bitrate= 136.8kbits/s    
frame=  134 fps= 10 q=9.0 size=     209kB time=00:00:13.00 bitrate= 131.6kbits/s    
frame=  140 fps= 10 q=9.0 size=     211kB time=00:00:13.60 bitrate= 127.0kbits/s    
frame=  146 fps= 10 q=9.0 size=     211kB time=00:00:14.20 bitrate= 121.7kbits/s    
frame=  152 fps= 10 q=9.0 size=     211kB time=00:00:14.80 bitrate= 117.0kbits/s    
frame=  158 fps= 10 q=9.0 size=     212kB time=00:00:15.40 bitrate= 112.6kbits/s    
frame=  163 fps= 10 q=9.0 size=     212kB time=00:00:15.90 bitrate= 109.1kbits/s    
frame=  169 fps= 10 q=9.0 size=     212kB time=00:00:16.50 bitrate= 105.3kbits/s    
frame=  174 fps= 10 q=9.0 size=     212kB time=00:00:17.00 bitrate= 102.3kbits/s    
frame=  179 fps= 10 q=9.0 size=     213kB time=00:00:17.50 bitrate=  99.5kbits/s    
frame=  184 fps= 10 q=9.0 size=     213kB time=00:00:18.00 bitrate=  96.8kbits/s    
frame=  189 fps= 10 q=9.0 size=     213kB time=00:00:18.50 bitrate=  94.4kbits/s    
frame=  195 fps= 10 q=9.0 size=     213kB time=00:00:19.10 bitrate=  91.5kbits/s    
frame=  201 fps= 10 q=9.0 size=     214kB time=00:00:19.70 bitrate=  88.9kbits/s    
frame=  206 fps= 10 q=9.0 size=     214kB time=00:00:20.20 bitrate=  86.8kbits/s    
frame=  212 fps= 10 q=9.0 size=     214kB time=00:00:20.80 bitrate=  84.4kbits/s    
frame=  217 fps= 10 q=9.0 size=     214kB time=00:00:21.30 bitrate=  82.5kbits/s    
frame=  222 fps= 10 q=9.0 size=     215kB time=00:00:21.80 bitrate=  80.7kbits/s    
frame=  227 fps= 10 q=9.0 size=     215kB time=00:00:22.30 bitrate=  79.0kbits/s    
frame=  233 fps= 10 q=9.0 size=     215kB time=00:00:22.90 bitrate=  77.0kbits/s    
frame=  239 fps= 10 q=9.0 size=     215kB time=00:00:23.50 bitrate=  75.1kbits/s    
frame=  244 fps= 10 q=9.0 size=     216kB time=00:00:24.00 bitrate=  73.6kbits/s    
frame=  249 fps= 10 q=9.0 size=     216kB time=00:00:24.50 bitrate=  72.2kbits/s    
frame=  253 fps= 10 q=6.0 size=     216kB time=00:00:24.90 bitrate=  71.1kbits/s    
frame=  260 fps= 10 q=10.0 size=     249kB time=00:00:25.60 bitrate=  79.8kbits/s    
frame=  265 fps= 10 q=9.0 size=     250kB time=00:00:26.10 bitrate=  78.4kbits/s    
frame=  271 fps= 10 q=11.0 size=     250kB time=00:00:26.70 bitrate=  76.7kbits/s    
frame=  276 fps= 10 q=9.0 size=     254kB time=00:00:27.20 bitrate=  76.6kbits/s    
--40001LOG 16:46:59:896205100 Trapped SIGTERM or SIGINT so shutting down ffmpeg gracefully...
--40001LOG 16:46:59:934500800 Will kill VID_TOOL_PID=620 ...
frame=  281 fps= 10 q=-1.0 Lsize=     255kB time=00:00:28.10 bitrate=  74.3kbits/s    
video:252kB audio:0kB subtitle:0kB other streams:0kB global headers:0kB muxing overhead: 1.014191%
[libx264 @ 0x11a2320] frame I:2     Avg QP:13.00  size: 24374
[libx264 @ 0x11a2320] frame P:279   Avg QP: 9.51  size:   749
[libx264 @ 0x11a2320] mb I  I16..4: 100.0%  0.0%  0.0%
[libx264 @ 0x11a2320] mb P  I16..4:  0.8%  0.0%  0.0%  P16..4:  0.6%  0.0%  0.0%  0.0%  0.0%    skip:98.7%
[libx264 @ 0x11a2320] coded y,uvDC,uvAC intra: 6.5% 2.7% 2.5% inter: 0.2% 0.2% 0.1%
[libx264 @ 0x11a2320] i16 v,h,dc,p: 86% 13%  1%  0%
[libx264 @ 0x11a2320] i8c dc,h,v,p: 90%  9%  1%  0%
[libx264 @ 0x11a2320] kb/s:73.38
Exiting normally, received signal 2.
--40001LOG 16:47:00:969755200 Tried to kill -SIGTERM VID_TOOL_PID=620
--40001LOG 16:47:01:068706800 Waiting up to 6s for VID_TOOL_PID=620 to end with SIGTERM...
--40001LOG 16:47:01:112182300 wait_pid successfully managed to SIGTERM:VID_TOOL_PID=620 within less than 6s
--40001LOG 16:47:01:125395300 Will try to fix the videos...
--40001LOG 16:47:01:687573600 Fixing perms for /home/seluser/videos/vid_chrome_or_firefox_40001.mkv*
--40001LOG 16:47:01:761503100 Changing video encoding from mkv to mp4...
--40001LOG 16:47:04:074683400 Conversion from mkv to mp4 succeeded!
--40001LOG 16:47:04:083185000 Cleaning up /home/seluser/videos/vid_chrome_or_firefox_40001.mkv ...
--40001LOG 16:47:04:097214800 Optimizing /home/seluser/videos/vid_chrome_or_firefox_40001.mp4 for HTTP streaming...
--40001LOG 16:47:04:173882100 Succeeded to mp4box_retry.sh within 8s
--40001LOG 16:47:04:184221300 ffmpeg shutdown complete.
